# xmcd
#
# Track frame offsets: 
#        150
#        17219
#        38163
#        67300
#        91635
#        117682
#        135289
#        152131
#        174698
#        203023
#        225257
#        248105
#        269839
#        311805
#
# Disc length: 4547 seconds
#
# Revision: 0
# Processed by: cddbd v1.5.2PL0 Copyright (c) Steve Scherf et al.
# Submitted via: ExactAudioCopyFreeDBPlugin 1.0
#
DISCID=c311c10e
DTITLE=Robert Cray - Club Redux, Dallas
DYEAR=1987
DGENRE=Blues
TTITLE0=I Guess I Showed Her
TTITLE1=Still Around
TTITLE2=T-Bone Shuffle
TTITLE3=Right Next Door
TTITLE4=Smoking Gun
TTITLE5=More Than I Can Stand
TTITLE6=Bad Influence
TTITLE7=Playing in the Dirt
TTITLE8=Porch Light
TTITLE9=Foul Play
TTITLE10=Phone Booth
TTITLE11=Robert Cray and Stevie Ray Vaughan - False Accusations
TTITLE12=Robert Cray and Stevie Ray Vaughan - Jam
TTITLE13=Robert Cray and Stevie Ray Vaughan - New Blood
EXTD=
EXTT0=
EXTT1=
EXTT2=
EXTT3=
EXTT4=
EXTT5=
EXTT6=
EXTT7=
EXTT8=
EXTT9=
EXTT10=
EXTT11=
EXTT12=
EXTT13=
PLAYORDER=
